<svg width="58" height="58" viewBox="0 0 614 630" fill="none" xmlns="http://www.w3.org/2000/svg">
<path d="M209.084 330.487V263.329C209.084 216.522 208.829 189.048 208.321 180.908C207.812 174.039 206.413 169.079 204.123 166.026C202.088 162.719 198.018 160.43 191.913 159.158C188.86 158.395 184.535 158.013 178.939 158.013C176.904 158.013 175.886 157.25 175.886 155.724C175.886 153.689 177.921 152.671 181.992 152.671C187.079 152.671 193.057 152.798 199.926 153.053C206.794 153.053 212.645 153.18 217.478 153.434C222.312 153.689 224.856 153.816 225.11 153.816C225.873 153.816 232.36 153.689 244.571 153.434C257.035 152.925 265.557 152.671 270.136 152.671C301.171 152.671 324.448 158.267 339.965 169.46C346.325 174.039 352.303 180.908 357.899 190.066C363.496 199.224 366.294 209.653 366.294 221.355C366.294 251.627 350.904 281.009 320.123 309.5C360.571 361.395 387.027 393.956 399.492 407.184C414.5 422.956 430.018 432.114 446.044 434.658C450.878 435.421 455.838 435.803 460.926 435.803C463.215 435.803 464.36 436.566 464.36 438.092C464.36 440.127 461.307 441.145 455.202 441.145H428.11C409.794 441.145 396.185 438.728 387.281 433.895C382.193 431.096 376.47 426.518 370.11 420.158C364.005 413.798 359.426 408.711 356.373 404.895C353.321 400.825 346.452 391.794 335.768 377.803C329.917 369.917 322.031 359.232 312.11 345.75C302.189 332.013 296.211 323.873 294.176 321.329C292.649 319.803 290.996 319.039 289.215 319.039L242.281 318.276C240.5 318.276 239.61 319.294 239.61 321.329V330.487C239.61 375.004 240.246 402.605 241.518 413.289C242.281 419.649 243.553 424.61 245.334 428.171C247.369 431.478 251.057 433.513 256.399 434.276C263.522 435.294 269.246 435.803 273.571 435.803C275.606 435.803 276.623 436.566 276.623 438.092C276.623 440.127 274.588 441.145 270.518 441.145C264.413 441.145 257.544 441.018 249.913 440.763C242.535 440.763 236.303 440.636 231.215 440.382C226.382 440.127 223.838 440 223.584 440H220.913C219.132 440.254 216.842 440.382 214.044 440.382C211.246 440.636 208.321 440.763 205.268 440.763C202.215 440.763 199.035 440.763 195.728 440.763C192.421 441.018 189.75 441.145 187.715 441.145C183.645 441.145 181.61 440.127 181.61 438.092C181.61 436.566 182.628 435.803 184.663 435.803C187.715 435.803 191.531 435.294 196.11 434.276C201.706 433.259 205.395 426.263 207.176 413.289C208.448 402.605 209.084 375.004 209.084 330.487ZM239.61 171.75V296.526C239.61 298.561 240.5 300.088 242.281 301.105C249.149 305.175 262.505 307.21 282.347 307.21C294.557 307.21 304.097 304.794 310.965 299.96C326.483 289.276 334.242 269.689 334.242 241.197C334.242 217.285 328.264 198.588 316.307 185.105C304.606 171.623 288.579 164.882 268.228 164.882C256.272 164.882 247.75 165.645 242.663 167.171C240.628 167.934 239.61 169.46 239.61 171.75Z" fill="#22211F"/>
<path d="M408.912 28.4296C377.127 16.506 342.804 10 307 10C142.971 10 10 146.553 10 315C10 483.447 142.971 620 307 620C471.029 620 604 483.447 604 315C604 278.737 597.838 243.953 586.529 211.69" stroke="#22211F" stroke-width="20"/>
<path d="M227.392 540.498C252.22 549.88 279.032 555 307 555C435.13 555 539 447.548 539 315C539 182.452 435.13 75 307 75C178.87 75 75 182.452 75 315C75 343.535 79.8138 370.906 88.6471 396.293" stroke="#22211F" stroke-width="10"/>
</svg>
